REM DIRINDEX 1\2\5,1\2\6,1\2\7,1\2\8,1\3\9,1\3\10,1\3\11,1\4\12,1\4\13,1\4\14,1\4\15,1\4\16
REM DIRNAME cjc034,folder01,folder02,folder03,folder04,folder05,folder06,folder07,folder08,folder09,folder10,folder11,folder12,folder13,folder14,folder15
TITLE ""
FILE "1200_sec03_0756_0763.mp3" MP3
  TRACK 01 AUDIO
    TITLE "0:"
    INDEX 01 00:00:00
  TRACK 02 AUDIO
    TITLE "16:cjc034_06685"
    INDEX 01 00:00:17
  TRACK 03 AUDIO
    TITLE "0:"
    INDEX 01 00:02:71
  TRACK 04 AUDIO
    TITLE "12:cjc034_06686"
    INDEX 01 00:03:70
  TRACK 05 AUDIO
    TITLE "0:"
    INDEX 01 00:05:20
  TRACK 06 AUDIO
    TITLE "13:cjc034_06687"
    INDEX 01 00:05:50
  TRACK 07 AUDIO
    TITLE "0:"
    INDEX 01 00:09:04
  TRACK 08 AUDIO
    TITLE "14:cjc034_06688"
    INDEX 01 00:09:36
  TRACK 09 AUDIO
    TITLE "0:"
    INDEX 01 00:10:59
  TRACK 10 AUDIO
    TITLE "15:cjc034_06689"
    INDEX 01 00:11:17
  TRACK 11 AUDIO
    TITLE "0:"
    INDEX 01 00:16:00
  TRACK 12 AUDIO
    TITLE "12:cjc034_06690"
    INDEX 01 00:17:35
  TRACK 13 AUDIO
    TITLE "0:"
    INDEX 01 00:18:31
  TRACK 14 AUDIO
    TITLE "13:cjc034_06691"
    INDEX 01 00:18:68
  TRACK 15 AUDIO
    TITLE "0:"
    INDEX 01 00:20:12
  TRACK 16 AUDIO
    TITLE "14:cjc034_06692"
    INDEX 01 00:20:45
  TRACK 17 AUDIO
    TITLE "0:"
    INDEX 01 00:21:39
  TRACK 18 AUDIO
    TITLE "15:cjc034_06693"
    INDEX 01 00:22:03
  TRACK 19 AUDIO
    TITLE "0:"
    INDEX 01 00:27:18
  TRACK 20 AUDIO
    TITLE "12:cjc034_06694"
    INDEX 01 00:28:49
  TRACK 21 AUDIO
    TITLE "0:"
    INDEX 01 00:29:64
  TRACK 22 AUDIO
    TITLE "13:cjc034_06695"
    INDEX 01 00:30:22
  TRACK 23 AUDIO
    TITLE "0:"
    INDEX 01 00:32:21
  TRACK 24 AUDIO
    TITLE "14:cjc034_06696"
    INDEX 01 00:32:52
  TRACK 25 AUDIO
    TITLE "0:"
    INDEX 01 00:33:66
  TRACK 26 AUDIO
    TITLE "15:cjc034_06697"
    INDEX 01 00:34:26
  TRACK 27 AUDIO
    TITLE "0:"
    INDEX 01 00:38:10
  TRACK 28 AUDIO
    TITLE "12:cjc034_06698"
    INDEX 01 00:39:45
  TRACK 29 AUDIO
    TITLE "0:"
    INDEX 01 00:40:54
  TRACK 30 AUDIO
    TITLE "13:cjc034_06699"
    INDEX 01 00:41:14
  TRACK 31 AUDIO
    TITLE "0:"
    INDEX 01 00:46:31
  TRACK 32 AUDIO
    TITLE "14:cjc034_06700"
    INDEX 01 00:46:62
  TRACK 33 AUDIO
    TITLE "0:"
    INDEX 01 00:47:72
  TRACK 34 AUDIO
    TITLE "15:cjc034_06701"
    INDEX 01 00:48:32
  TRACK 35 AUDIO
    TITLE "0:"
    INDEX 01 00:51:30
  TRACK 36 AUDIO
    TITLE "12:cjc034_06702"
    INDEX 01 00:52:69
  TRACK 37 AUDIO
    TITLE "0:"
    INDEX 01 00:53:74
  TRACK 38 AUDIO
    TITLE "13:cjc034_06703"
    INDEX 01 00:54:34
  TRACK 39 AUDIO
    TITLE "0:"
    INDEX 01 00:55:73
  TRACK 40 AUDIO
    TITLE "14:cjc034_06704"
    INDEX 01 00:56:39
  TRACK 41 AUDIO
    TITLE "0:"
    INDEX 01 00:57:45
  TRACK 42 AUDIO
    TITLE "15:cjc034_06705"
    INDEX 01 00:58:03
  TRACK 43 AUDIO
    TITLE "0:"
    INDEX 01 01:02:22
  TRACK 44 AUDIO
    TITLE "12:cjc034_06706"
    INDEX 01 01:03:53
  TRACK 45 AUDIO
    TITLE "0:"
    INDEX 01 01:04:60
  TRACK 46 AUDIO
    TITLE "13:cjc034_06707"
    INDEX 01 01:05:17
  TRACK 47 AUDIO
    TITLE "0:"
    INDEX 01 01:08:03
  TRACK 48 AUDIO
    TITLE "14:cjc034_06708"
    INDEX 01 01:08:36
  TRACK 49 AUDIO
    TITLE "0:"
    INDEX 01 01:09:44
  TRACK 50 AUDIO
    TITLE "15:cjc034_06709"
    INDEX 01 01:10:02
  TRACK 51 AUDIO
    TITLE "0:"
    INDEX 01 01:13:20
  TRACK 52 AUDIO
    TITLE "12:cjc034_06710"
    INDEX 01 01:14:55
  TRACK 53 AUDIO
    TITLE "0:"
    INDEX 01 01:15:62
  TRACK 54 AUDIO
    TITLE "13:cjc034_06711"
    INDEX 01 01:16:20
  TRACK 55 AUDIO
    TITLE "0:"
    INDEX 01 01:18:37
  TRACK 56 AUDIO
    TITLE "14:cjc034_06712"
    INDEX 01 01:18:70
  TRACK 57 AUDIO
    TITLE "0:"
    INDEX 01 01:20:02
  TRACK 58 AUDIO
    TITLE "15:cjc034_06713"
    INDEX 01 01:20:38
  TRACK 59 AUDIO
    TITLE "0:"
    INDEX 01 01:25:02
  TRACK 60 AUDIO
    TITLE "16:cjc034_06714"
    INDEX 01 01:26:36
  TRACK 61 AUDIO
    TITLE "0:"
    INDEX 01 01:30:38
  TRACK 62 AUDIO
    TITLE "12:cjc034_06715"
    INDEX 01 01:31:43
  TRACK 63 AUDIO
    TITLE "0:"
    INDEX 01 01:32:64
  TRACK 64 AUDIO
    TITLE "13:cjc034_06716"
    INDEX 01 01:33:25
  TRACK 65 AUDIO
    TITLE "0:"
    INDEX 01 01:35:69
  TRACK 66 AUDIO
    TITLE "14:cjc034_06717"
    INDEX 01 01:36:31
  TRACK 67 AUDIO
    TITLE "0:"
    INDEX 01 01:37:52
  TRACK 68 AUDIO
    TITLE "15:cjc034_06718"
    INDEX 01 01:38:10
  TRACK 69 AUDIO
    TITLE "0:"
    INDEX 01 01:42:18
